
    <svg id="diagramSvg" xmlns="http://www.w3.org/2000/svg" style="width: 600px; height: 300px;">
      <style id="stylesheet">text {
  text-anchor: middle;
  font-size: small;
  font-weight: bold;
}

rect {
  fill: lightblue;
  stroke: black;
  opacity: 0.5;
  stroke-width: 1;
}

line {
  stroke: black;
  opacity: 0.5;
  stroke-width: 1;
}</style>
      <defs>
        <marker id="arrowHead" viewBox="-10 -5 10 10" markerUnits="strokeWidth" markerWidth="6" markerHeight="5" orient="auto">
          <path d="M -10 -5 L 0 0 L -10 5 z"></path>
        </marker>
      </defs>
      <g id="diagramGroup"><rect x="297px" y="0px" width="14px" height="25px"></rect><text x="304px" y="0px"><tspan x="304" dy="18">4</tspan></text><rect x="297px" y="55px" width="14px" height="25px"></rect><text x="304px" y="55px"><tspan x="304" dy="18">5</tspan></text><line x1="304px" y1="25px" x2="304px" y2="55px" marker-end="url(#arrowHead)"></line><rect x="31px" y="110px" width="14px" height="25px"></rect><text x="38px" y="110px"><tspan x="38" dy="18">1</tspan></text><line x1="299px" y1="80px" x2="38px" y2="110px" marker-end="url(#arrowHead)"></line><rect x="123px" y="110px" width="14px" height="25px"></rect><text x="131px" y="110px"><tspan x="131" dy="18">2</tspan></text><line x1="300px" y1="80px" x2="131px" y2="110px" marker-end="url(#arrowHead)"></line><rect x="208px" y="110px" width="14px" height="25px"></rect><text x="215px" y="110px"><tspan x="215" dy="18">3</tspan></text><line x1="302px" y1="80px" x2="215px" y2="110px" marker-end="url(#arrowHead)"></line><rect x="292px" y="110px" width="14px" height="25px"></rect><text x="299px" y="110px"><tspan x="299" dy="18">6</tspan></text><line x1="304px" y1="80px" x2="299px" y2="110px" marker-end="url(#arrowHead)"></line><rect x="385px" y="110px" width="14px" height="25px"></rect><text x="392px" y="110px"><tspan x="392" dy="18">7</tspan></text><line x1="306px" y1="80px" x2="392px" y2="110px" marker-end="url(#arrowHead)"></line><rect x="477px" y="110px" width="14px" height="25px"></rect><text x="484px" y="110px"><tspan x="484" dy="18">8</tspan></text><line x1="308px" y1="80px" x2="484px" y2="110px" marker-end="url(#arrowHead)"></line><rect x="562px" y="110px" width="14px" height="25px"></rect><text x="569px" y="110px"><tspan x="569" dy="18">9</tspan></text><line x1="309px" y1="80px" x2="569px" y2="110px" marker-end="url(#arrowHead)"></line><rect x="0px" y="165px" width="14px" height="25px"></rect><text x="7px" y="165px"><tspan x="7" dy="18">2</tspan></text><line x1="33px" y1="135px" x2="7px" y2="165px" marker-end="url(#arrowHead)"></line><rect x="15px" y="165px" width="14px" height="25px"></rect><text x="22px" y="165px"><tspan x="22" dy="18">6</tspan></text><line x1="36px" y1="135px" x2="22px" y2="165px" marker-end="url(#arrowHead)"></line><rect x="31px" y="165px" width="14px" height="25px"></rect><text x="38px" y="165px"><tspan x="38" dy="18">7</tspan></text><line x1="38px" y1="135px" x2="38px" y2="165px" marker-end="url(#arrowHead)"></line><rect x="47px" y="165px" width="14px" height="25px"></rect><text x="54px" y="165px"><tspan x="54" dy="18">8</tspan></text><line x1="41px" y1="135px" x2="54px" y2="165px" marker-end="url(#arrowHead)"></line><rect x="63px" y="165px" width="14px" height="25px"></rect><text x="70px" y="165px"><tspan x="70" dy="18">9</tspan></text><line x1="43px" y1="135px" x2="70px" y2="165px" marker-end="url(#arrowHead)"></line><rect x="84px" y="165px" width="14px" height="25px"></rect><text x="91px" y="165px"><tspan x="91" dy="18">1</tspan></text><line x1="125px" y1="135px" x2="91px" y2="165px" marker-end="url(#arrowHead)"></line><rect x="100px" y="165px" width="14px" height="25px"></rect><text x="107px" y="165px"><tspan x="107" dy="18">3</tspan></text><line x1="128px" y1="135px" x2="107px" y2="165px" marker-end="url(#arrowHead)"></line><rect x="116px" y="165px" width="14px" height="25px"></rect><text x="123px" y="165px"><tspan x="123" dy="18">6</tspan></text><line x1="130px" y1="135px" x2="123px" y2="165px" marker-end="url(#arrowHead)"></line><rect x="131px" y="165px" width="14px" height="25px"></rect><text x="138px" y="165px"><tspan x="138" dy="18">7</tspan></text><line x1="132px" y1="135px" x2="138px" y2="165px" marker-end="url(#arrowHead)"></line><rect x="147px" y="165px" width="14px" height="25px"></rect><text x="154px" y="165px"><tspan x="154" dy="18">8</tspan></text><line x1="134px" y1="135px" x2="154px" y2="165px" marker-end="url(#arrowHead)"></line><rect x="163px" y="165px" width="14px" height="25px"></rect><text x="170px" y="165px"><tspan x="170" dy="18">9</tspan></text><line x1="136px" y1="135px" x2="170px" y2="165px" marker-end="url(#arrowHead)"></line><rect x="184px" y="165px" width="14px" height="25px"></rect><text x="191px" y="165px"><tspan x="191" dy="18">2</tspan></text><line x1="211px" y1="135px" x2="191px" y2="165px" marker-end="url(#arrowHead)"></line><rect x="200px" y="165px" width="14px" height="25px"></rect><text x="207px" y="165px"><tspan x="207" dy="18">6</tspan></text><line x1="214px" y1="135px" x2="207px" y2="165px" marker-end="url(#arrowHead)"></line><rect x="216px" y="165px" width="14px" height="25px"></rect><text x="223px" y="165px"><tspan x="223" dy="18">7</tspan></text><line x1="216px" y1="135px" x2="223px" y2="165px" marker-end="url(#arrowHead)"></line><rect x="232px" y="165px" width="14px" height="25px"></rect><text x="239px" y="165px"><tspan x="239" dy="18">8</tspan></text><line x1="219px" y1="135px" x2="239px" y2="165px" marker-end="url(#arrowHead)"></line><rect x="253px" y="165px" width="14px" height="25px"></rect><text x="260px" y="165px"><tspan x="260" dy="18">1</tspan></text><line x1="294px" y1="135px" x2="260px" y2="165px" marker-end="url(#arrowHead)"></line><rect x="269px" y="165px" width="14px" height="25px"></rect><text x="276px" y="165px"><tspan x="276" dy="18">2</tspan></text><line x1="296px" y1="135px" x2="276px" y2="165px" marker-end="url(#arrowHead)"></line><rect x="284px" y="165px" width="14px" height="25px"></rect><text x="292px" y="165px"><tspan x="292" dy="18">3</tspan></text><line x1="298px" y1="135px" x2="292px" y2="165px" marker-end="url(#arrowHead)"></line><rect x="300px" y="165px" width="14px" height="25px"></rect><text x="307px" y="165px"><tspan x="307" dy="18">7</tspan></text><line x1="301px" y1="135px" x2="307px" y2="165px" marker-end="url(#arrowHead)"></line><rect x="316px" y="165px" width="14px" height="25px"></rect><text x="323px" y="165px"><tspan x="323" dy="18">8</tspan></text><line x1="303px" y1="135px" x2="323px" y2="165px" marker-end="url(#arrowHead)"></line><rect x="332px" y="165px" width="14px" height="25px"></rect><text x="339px" y="165px"><tspan x="339" dy="18">9</tspan></text><line x1="305px" y1="135px" x2="339px" y2="165px" marker-end="url(#arrowHead)"></line><rect x="353px" y="165px" width="14px" height="25px"></rect><text x="360px" y="165px"><tspan x="360" dy="18">1</tspan></text><line x1="387px" y1="135px" x2="360px" y2="165px" marker-end="url(#arrowHead)"></line><rect x="369px" y="165px" width="14px" height="25px"></rect><text x="376px" y="165px"><tspan x="376" dy="18">2</tspan></text><line x1="389px" y1="135px" x2="376px" y2="165px" marker-end="url(#arrowHead)"></line><rect x="385px" y="165px" width="14px" height="25px"></rect><text x="392px" y="165px"><tspan x="392" dy="18">3</tspan></text><line x1="392px" y1="135px" x2="392px" y2="165px" marker-end="url(#arrowHead)"></line><rect x="401px" y="165px" width="14px" height="25px"></rect><text x="408px" y="165px"><tspan x="408" dy="18">6</tspan></text><line x1="394px" y1="135px" x2="408px" y2="165px" marker-end="url(#arrowHead)"></line><rect x="416px" y="165px" width="14px" height="25px"></rect><text x="423px" y="165px"><tspan x="423" dy="18">8</tspan></text><line x1="397px" y1="135px" x2="423px" y2="165px" marker-end="url(#arrowHead)"></line><rect x="438px" y="165px" width="14px" height="25px"></rect><text x="445px" y="165px"><tspan x="445" dy="18">1</tspan></text><line x1="479px" y1="135px" x2="445px" y2="165px" marker-end="url(#arrowHead)"></line><rect x="453px" y="165px" width="14px" height="25px"></rect><text x="461px" y="165px"><tspan x="461" dy="18">2</tspan></text><line x1="481px" y1="135px" x2="461px" y2="165px" marker-end="url(#arrowHead)"></line><rect x="469px" y="165px" width="14px" height="25px"></rect><text x="476px" y="165px"><tspan x="476" dy="18">3</tspan></text><line x1="483px" y1="135px" x2="476px" y2="165px" marker-end="url(#arrowHead)"></line><rect x="485px" y="165px" width="14px" height="25px"></rect><text x="492px" y="165px"><tspan x="492" dy="18">6</tspan></text><line x1="485px" y1="135px" x2="492px" y2="165px" marker-end="url(#arrowHead)"></line><rect x="501px" y="165px" width="14px" height="25px"></rect><text x="508px" y="165px"><tspan x="508" dy="18">7</tspan></text><line x1="487px" y1="135px" x2="508px" y2="165px" marker-end="url(#arrowHead)"></line><rect x="517px" y="165px" width="14px" height="25px"></rect><text x="524px" y="165px"><tspan x="524" dy="18">9</tspan></text><line x1="489px" y1="135px" x2="524px" y2="165px" marker-end="url(#arrowHead)"></line><rect x="538px" y="165px" width="14px" height="25px"></rect><text x="545px" y="165px"><tspan x="545" dy="18">1</tspan></text><line x1="564px" y1="135px" x2="545px" y2="165px" marker-end="url(#arrowHead)"></line><rect x="554px" y="165px" width="14px" height="25px"></rect><text x="561px" y="165px"><tspan x="561" dy="18">2</tspan></text><line x1="567px" y1="135px" x2="561px" y2="165px" marker-end="url(#arrowHead)"></line><rect x="569px" y="165px" width="14px" height="25px"></rect><text x="577px" y="165px"><tspan x="577" dy="18">6</tspan></text><line x1="570px" y1="135px" x2="577px" y2="165px" marker-end="url(#arrowHead)"></line><rect x="585px" y="165px" width="14px" height="25px"></rect><text x="592px" y="165px"><tspan x="592" dy="18">8</tspan></text><line x1="573px" y1="135px" x2="592px" y2="165px" marker-end="url(#arrowHead)"></line></g>
    </svg>
  