
    <svg id="diagramSvg" xmlns="http://www.w3.org/2000/svg" style="width: 600px; height: 300px;">
      <style id="stylesheet">text {
  text-anchor: middle;
  font-size: small;
  font-weight: bold;
}

rect {
  fill: lightblue;
  stroke: black;
  opacity: 0.5;
  stroke-width: 1;
}

line {
  stroke: black;
  opacity: 0.5;
  stroke-width: 1;
}</style>
      <defs>
        <marker id="arrowHead" viewBox="-10 -5 10 10" markerUnits="strokeWidth" markerWidth="6" markerHeight="5" orient="auto">
          <path d="M -10 -5 L 0 0 L -10 5 z"></path>
        </marker>
      </defs>
      <g id="diagramGroup"><rect x="298px" y="0px" width="19px" height="25px"></rect><text x="308px" y="0px"><tspan x="308" dy="18">4</tspan></text><rect x="298px" y="55px" width="19px" height="25px"></rect><text x="308px" y="55px"><tspan x="308" dy="18">1</tspan></text><line x1="308px" y1="25px" x2="308px" y2="55px" marker-end="url(#arrowHead)"></line><rect x="43px" y="110px" width="19px" height="25px"></rect><text x="53px" y="110px"><tspan x="53" dy="18">2</tspan></text><line x1="302px" y1="80px" x2="53px" y2="110px" marker-end="url(#arrowHead)"></line><rect x="172px" y="110px" width="19px" height="25px"></rect><text x="182px" y="110px"><tspan x="182" dy="18">5</tspan></text><line x1="305px" y1="80px" x2="182px" y2="110px" marker-end="url(#arrowHead)"></line><rect x="312px" y="110px" width="19px" height="25px"></rect><text x="321px" y="110px"><tspan x="321" dy="18">6</tspan></text><line x1="308px" y1="80px" x2="321px" y2="110px" marker-end="url(#arrowHead)"></line><rect x="429px" y="110px" width="19px" height="25px"></rect><text x="439px" y="110px"><tspan x="439" dy="18">7</tspan></text><line x1="312px" y1="80px" x2="439px" y2="110px" marker-end="url(#arrowHead)"></line><rect x="536px" y="110px" width="19px" height="25px"></rect><text x="546px" y="110px"><tspan x="546" dy="18">8</tspan></text><line x1="315px" y1="80px" x2="546px" y2="110px" marker-end="url(#arrowHead)"></line><rect x="0px" y="165px" width="19px" height="25px"></rect><text x="9px" y="165px"><tspan x="9" dy="18">3</tspan></text><line x1="47px" y1="135px" x2="9px" y2="165px" marker-end="url(#arrowHead)"></line><rect x="21px" y="165px" width="19px" height="25px"></rect><text x="31px" y="165px"><tspan x="31" dy="18">5</tspan></text><line x1="50px" y1="135px" x2="31px" y2="165px" marker-end="url(#arrowHead)"></line><rect x="43px" y="165px" width="19px" height="25px"></rect><text x="53px" y="165px"><tspan x="53" dy="18">6</tspan></text><line x1="53px" y1="135px" x2="53px" y2="165px" marker-end="url(#arrowHead)"></line><rect x="65px" y="165px" width="19px" height="25px"></rect><text x="75px" y="165px"><tspan x="75" dy="18">7</tspan></text><line x1="57px" y1="135px" x2="75px" y2="165px" marker-end="url(#arrowHead)"></line><rect x="87px" y="165px" width="19px" height="25px"></rect><text x="97px" y="165px"><tspan x="97" dy="18">9</tspan></text><line x1="60px" y1="135px" x2="97px" y2="165px" marker-end="url(#arrowHead)"></line><rect x="117px" y="165px" width="19px" height="25px"></rect><text x="127px" y="165px"><tspan x="127" dy="18">2</tspan></text><line x1="175px" y1="135px" x2="127px" y2="165px" marker-end="url(#arrowHead)"></line><rect x="139px" y="165px" width="19px" height="25px"></rect><text x="149px" y="165px"><tspan x="149" dy="18">3</tspan></text><line x1="178px" y1="135px" x2="149px" y2="165px" marker-end="url(#arrowHead)"></line><rect x="161px" y="165px" width="19px" height="25px"></rect><text x="171px" y="165px"><tspan x="171" dy="18">6</tspan></text><line x1="181px" y1="135px" x2="171px" y2="165px" marker-end="url(#arrowHead)"></line><rect x="183px" y="165px" width="19px" height="25px"></rect><text x="193px" y="165px"><tspan x="193" dy="18">7</tspan></text><line x1="183px" y1="135px" x2="193px" y2="165px" marker-end="url(#arrowHead)"></line><rect x="205px" y="165px" width="19px" height="25px"></rect><text x="215px" y="165px"><tspan x="215" dy="18">8</tspan></text><line x1="186px" y1="135px" x2="215px" y2="165px" marker-end="url(#arrowHead)"></line><rect x="227px" y="165px" width="19px" height="25px"></rect><text x="237px" y="165px"><tspan x="237" dy="18">9</tspan></text><line x1="189px" y1="135px" x2="237px" y2="165px" marker-end="url(#arrowHead)"></line><rect x="257px" y="165px" width="19px" height="25px"></rect><text x="267px" y="165px"><tspan x="267" dy="18">2</tspan></text><line x1="314px" y1="135px" x2="267px" y2="165px" marker-end="url(#arrowHead)"></line><rect x="279px" y="165px" width="19px" height="25px"></rect><text x="289px" y="165px"><tspan x="289" dy="18">3</tspan></text><line x1="317px" y1="135px" x2="289px" y2="165px" marker-end="url(#arrowHead)"></line><rect x="301px" y="165px" width="19px" height="25px"></rect><text x="310px" y="165px"><tspan x="310" dy="18">5</tspan></text><line x1="320px" y1="135px" x2="310px" y2="165px" marker-end="url(#arrowHead)"></line><rect x="323px" y="165px" width="19px" height="25px"></rect><text x="332px" y="165px"><tspan x="332" dy="18">7</tspan></text><line x1="323px" y1="135px" x2="332px" y2="165px" marker-end="url(#arrowHead)"></line><rect x="345px" y="165px" width="19px" height="25px"></rect><text x="354px" y="165px"><tspan x="354" dy="18">8</tspan></text><line x1="326px" y1="135px" x2="354px" y2="165px" marker-end="url(#arrowHead)"></line><rect x="367px" y="165px" width="19px" height="25px"></rect><text x="376px" y="165px"><tspan x="376" dy="18">9</tspan></text><line x1="329px" y1="135px" x2="376px" y2="165px" marker-end="url(#arrowHead)"></line><rect x="396px" y="165px" width="19px" height="25px"></rect><text x="406px" y="165px"><tspan x="406" dy="18">2</tspan></text><line x1="433px" y1="135px" x2="406px" y2="165px" marker-end="url(#arrowHead)"></line><rect x="418px" y="165px" width="19px" height="25px"></rect><text x="428px" y="165px"><tspan x="428" dy="18">5</tspan></text><line x1="437px" y1="135px" x2="428px" y2="165px" marker-end="url(#arrowHead)"></line><rect x="440px" y="165px" width="19px" height="25px"></rect><text x="450px" y="165px"><tspan x="450" dy="18">6</tspan></text><line x1="441px" y1="135px" x2="450px" y2="165px" marker-end="url(#arrowHead)"></line><rect x="462px" y="165px" width="19px" height="25px"></rect><text x="472px" y="165px"><tspan x="472" dy="18">8</tspan></text><line x1="445px" y1="135px" x2="472px" y2="165px" marker-end="url(#arrowHead)"></line><rect x="492px" y="165px" width="19px" height="25px"></rect><text x="502px" y="165px"><tspan x="502" dy="18">3</tspan></text><line x1="539px" y1="135px" x2="502px" y2="165px" marker-end="url(#arrowHead)"></line><rect x="514px" y="165px" width="19px" height="25px"></rect><text x="524px" y="165px"><tspan x="524" dy="18">5</tspan></text><line x1="542px" y1="135px" x2="524px" y2="165px" marker-end="url(#arrowHead)"></line><rect x="536px" y="165px" width="19px" height="25px"></rect><text x="546px" y="165px"><tspan x="546" dy="18">6</tspan></text><line x1="546px" y1="135px" x2="546px" y2="165px" marker-end="url(#arrowHead)"></line><rect x="558px" y="165px" width="19px" height="25px"></rect><text x="568px" y="165px"><tspan x="568" dy="18">7</tspan></text><line x1="549px" y1="135px" x2="568px" y2="165px" marker-end="url(#arrowHead)"></line><rect x="580px" y="165px" width="19px" height="25px"></rect><text x="590px" y="165px"><tspan x="590" dy="18">9</tspan></text><line x1="552px" y1="135px" x2="590px" y2="165px" marker-end="url(#arrowHead)"></line></g>
    </svg>
  