
    <svg id="diagramSvg" xmlns="http://www.w3.org/2000/svg" style="width: 600px; height: 300px;">
      <style id="stylesheet">text {
  text-anchor: middle;
  font-size: small;
  font-weight: bold;
}

rect {
  fill: lightblue;
  stroke: black;
  opacity: 0.5;
  stroke-width: 1;
}

line {
  stroke: black;
  opacity: 0.5;
  stroke-width: 1;
}</style>
      <defs>
        <marker id="arrowHead" viewBox="-10 -5 10 10" markerUnits="strokeWidth" markerWidth="6" markerHeight="5" orient="auto">
          <path d="M -10 -5 L 0 0 L -10 5 z"></path>
        </marker>
      </defs>
      <g id="diagramGroup"><rect x="307px" y="0px" width="18px" height="25px"></rect><text x="316px" y="0px"><tspan x="316" dy="18">4</tspan></text><rect x="307px" y="55px" width="18px" height="25px"></rect><text x="316px" y="55px"><tspan x="316" dy="18">2</tspan></text><line x1="316px" y1="25px" x2="316px" y2="55px" marker-end="url(#arrowHead)"></line><rect x="40px" y="110px" width="18px" height="25px"></rect><text x="49px" y="110px"><tspan x="49" dy="18">1</tspan></text><line x1="310px" y1="80px" x2="49px" y2="110px" marker-end="url(#arrowHead)"></line><rect x="138px" y="110px" width="18px" height="25px"></rect><text x="147px" y="110px"><tspan x="147" dy="18">3</tspan></text><line x1="312px" y1="80px" x2="147px" y2="110px" marker-end="url(#arrowHead)"></line><rect x="246px" y="110px" width="18px" height="25px"></rect><text x="255px" y="110px"><tspan x="255" dy="18">5</tspan></text><line x1="315px" y1="80px" x2="255px" y2="110px" marker-end="url(#arrowHead)"></line><rect x="375px" y="110px" width="18px" height="25px"></rect><text x="384px" y="110px"><tspan x="384" dy="18">6</tspan></text><line x1="318px" y1="80px" x2="384px" y2="110px" marker-end="url(#arrowHead)"></line><rect x="483px" y="110px" width="18px" height="25px"></rect><text x="492px" y="110px"><tspan x="492" dy="18">7</tspan></text><line x1="320px" y1="80px" x2="492px" y2="110px" marker-end="url(#arrowHead)"></line><rect x="561px" y="110px" width="18px" height="25px"></rect><text x="570px" y="110px"><tspan x="570" dy="18">9</tspan></text><line x1="323px" y1="80px" x2="570px" y2="110px" marker-end="url(#arrowHead)"></line><rect x="0px" y="165px" width="18px" height="25px"></rect><text x="9px" y="165px"><tspan x="9" dy="18">3</tspan></text><line x1="43px" y1="135px" x2="9px" y2="165px" marker-end="url(#arrowHead)"></line><rect x="20px" y="165px" width="18px" height="25px"></rect><text x="29px" y="165px"><tspan x="29" dy="18">5</tspan></text><line x1="46px" y1="135px" x2="29px" y2="165px" marker-end="url(#arrowHead)"></line><rect x="40px" y="165px" width="18px" height="25px"></rect><text x="49px" y="165px"><tspan x="49" dy="18">6</tspan></text><line x1="49px" y1="135px" x2="49px" y2="165px" marker-end="url(#arrowHead)"></line><rect x="60px" y="165px" width="18px" height="25px"></rect><text x="69px" y="165px"><tspan x="69" dy="18">7</tspan></text><line x1="52px" y1="135px" x2="69px" y2="165px" marker-end="url(#arrowHead)"></line><rect x="80px" y="165px" width="18px" height="25px"></rect><text x="90px" y="165px"><tspan x="90" dy="18">8</tspan></text><line x1="55px" y1="135px" x2="90px" y2="165px" marker-end="url(#arrowHead)"></line><rect x="108px" y="165px" width="18px" height="25px"></rect><text x="117px" y="165px"><tspan x="117" dy="18">1</tspan></text><line x1="142px" y1="135px" x2="117px" y2="165px" marker-end="url(#arrowHead)"></line><rect x="128px" y="165px" width="18px" height="25px"></rect><text x="137px" y="165px"><tspan x="137" dy="18">5</tspan></text><line x1="145px" y1="135px" x2="137px" y2="165px" marker-end="url(#arrowHead)"></line><rect x="148px" y="165px" width="18px" height="25px"></rect><text x="157px" y="165px"><tspan x="157" dy="18">6</tspan></text><line x1="149px" y1="135px" x2="157px" y2="165px" marker-end="url(#arrowHead)"></line><rect x="168px" y="165px" width="18px" height="25px"></rect><text x="178px" y="165px"><tspan x="178" dy="18">8</tspan></text><line x1="153px" y1="135px" x2="178px" y2="165px" marker-end="url(#arrowHead)"></line><rect x="196px" y="165px" width="18px" height="25px"></rect><text x="205px" y="165px"><tspan x="205" dy="18">1</tspan></text><line x1="249px" y1="135px" x2="205px" y2="165px" marker-end="url(#arrowHead)"></line><rect x="216px" y="165px" width="18px" height="25px"></rect><text x="225px" y="165px"><tspan x="225" dy="18">3</tspan></text><line x1="252px" y1="135px" x2="225px" y2="165px" marker-end="url(#arrowHead)"></line><rect x="236px" y="165px" width="18px" height="25px"></rect><text x="245px" y="165px"><tspan x="245" dy="18">6</tspan></text><line x1="254px" y1="135px" x2="245px" y2="165px" marker-end="url(#arrowHead)"></line><rect x="256px" y="165px" width="18px" height="25px"></rect><text x="266px" y="165px"><tspan x="266" dy="18">7</tspan></text><line x1="257px" y1="135px" x2="266px" y2="165px" marker-end="url(#arrowHead)"></line><rect x="277px" y="165px" width="18px" height="25px"></rect><text x="286px" y="165px"><tspan x="286" dy="18">8</tspan></text><line x1="259px" y1="135px" x2="286px" y2="165px" marker-end="url(#arrowHead)"></line><rect x="297px" y="165px" width="18px" height="25px"></rect><text x="306px" y="165px"><tspan x="306" dy="18">9</tspan></text><line x1="262px" y1="135px" x2="306px" y2="165px" marker-end="url(#arrowHead)"></line><rect x="324px" y="165px" width="18px" height="25px"></rect><text x="333px" y="165px"><tspan x="333" dy="18">1</tspan></text><line x1="377px" y1="135px" x2="333px" y2="165px" marker-end="url(#arrowHead)"></line><rect x="345px" y="165px" width="18px" height="25px"></rect><text x="354px" y="165px"><tspan x="354" dy="18">3</tspan></text><line x1="380px" y1="135px" x2="354px" y2="165px" marker-end="url(#arrowHead)"></line><rect x="365px" y="165px" width="18px" height="25px"></rect><text x="374px" y="165px"><tspan x="374" dy="18">5</tspan></text><line x1="383px" y1="135px" x2="374px" y2="165px" marker-end="url(#arrowHead)"></line><rect x="385px" y="165px" width="18px" height="25px"></rect><text x="394px" y="165px"><tspan x="394" dy="18">7</tspan></text><line x1="385px" y1="135px" x2="394px" y2="165px" marker-end="url(#arrowHead)"></line><rect x="405px" y="165px" width="18px" height="25px"></rect><text x="414px" y="165px"><tspan x="414" dy="18">8</tspan></text><line x1="388px" y1="135px" x2="414px" y2="165px" marker-end="url(#arrowHead)"></line><rect x="425px" y="165px" width="18px" height="25px"></rect><text x="435px" y="165px"><tspan x="435" dy="18">9</tspan></text><line x1="390px" y1="135px" x2="435px" y2="165px" marker-end="url(#arrowHead)"></line><rect x="453px" y="165px" width="18px" height="25px"></rect><text x="462px" y="165px"><tspan x="462" dy="18">1</tspan></text><line x1="487px" y1="135px" x2="462px" y2="165px" marker-end="url(#arrowHead)"></line><rect x="473px" y="165px" width="18px" height="25px"></rect><text x="482px" y="165px"><tspan x="482" dy="18">5</tspan></text><line x1="490px" y1="135px" x2="482px" y2="165px" marker-end="url(#arrowHead)"></line><rect x="493px" y="165px" width="18px" height="25px"></rect><text x="502px" y="165px"><tspan x="502" dy="18">6</tspan></text><line x1="494px" y1="135px" x2="502px" y2="165px" marker-end="url(#arrowHead)"></line><rect x="513px" y="165px" width="18px" height="25px"></rect><text x="523px" y="165px"><tspan x="523" dy="18">8</tspan></text><line x1="498px" y1="135px" x2="523px" y2="165px" marker-end="url(#arrowHead)"></line><rect x="541px" y="165px" width="18px" height="25px"></rect><text x="550px" y="165px"><tspan x="550" dy="18">5</tspan></text><line x1="566px" y1="135px" x2="550px" y2="165px" marker-end="url(#arrowHead)"></line><rect x="561px" y="165px" width="18px" height="25px"></rect><text x="570px" y="165px"><tspan x="570" dy="18">6</tspan></text><line x1="570px" y1="135px" x2="570px" y2="165px" marker-end="url(#arrowHead)"></line><rect x="581px" y="165px" width="18px" height="25px"></rect><text x="590px" y="165px"><tspan x="590" dy="18">8</tspan></text><line x1="575px" y1="135px" x2="590px" y2="165px" marker-end="url(#arrowHead)"></line></g>
    </svg>
  