
    <svg id="diagramSvg" xmlns="http://www.w3.org/2000/svg" style="width: 600px; height: 300px;">
      <style id="stylesheet">text {
  text-anchor: middle;
  font-size: small;
  font-weight: bold;
}

rect {
  fill: lightblue;
  stroke: black;
  opacity: 0.5;
  stroke-width: 1;
}

line {
  stroke: black;
  opacity: 0.5;
  stroke-width: 1;
}</style>
      <defs>
        <marker id="arrowHead" viewBox="-10 -5 10 10" markerUnits="strokeWidth" markerWidth="6" markerHeight="5" orient="auto">
          <path d="M -10 -5 L 0 0 L -10 5 z"></path>
        </marker>
      </defs>
      <g id="diagramGroup"><rect x="285px" y="0px" width="17px" height="25px"></rect><text x="293px" y="0px"><tspan x="293" dy="18">1</tspan></text><rect x="285px" y="55px" width="17px" height="25px"></rect><text x="293px" y="55px"><tspan x="293" dy="18">8</tspan></text><line x1="293px" y1="25px" x2="293px" y2="55px" marker-end="url(#arrowHead)"></line><rect x="28px" y="110px" width="17px" height="25px"></rect><text x="36px" y="110px"><tspan x="36" dy="18">3</tspan></text><line x1="287px" y1="80px" x2="36px" y2="110px" marker-end="url(#arrowHead)"></line><rect x="120px" y="110px" width="17px" height="25px"></rect><text x="128px" y="110px"><tspan x="128" dy="18">4</tspan></text><line x1="290px" y1="80px" x2="128px" y2="110px" marker-end="url(#arrowHead)"></line><rect x="231px" y="110px" width="17px" height="25px"></rect><text x="239px" y="110px"><tspan x="239" dy="18">5</tspan></text><line x1="292px" y1="80px" x2="239px" y2="110px" marker-end="url(#arrowHead)"></line><rect x="342px" y="110px" width="17px" height="25px"></rect><text x="350px" y="110px"><tspan x="350" dy="18">6</tspan></text><line x1="294px" y1="80px" x2="350px" y2="110px" marker-end="url(#arrowHead)"></line><rect x="443px" y="110px" width="17px" height="25px"></rect><text x="452px" y="110px"><tspan x="452" dy="18">7</tspan></text><line x1="297px" y1="80px" x2="452px" y2="110px" marker-end="url(#arrowHead)"></line><rect x="545px" y="110px" width="17px" height="25px"></rect><text x="553px" y="110px"><tspan x="553" dy="18">9</tspan></text><line x1="299px" y1="80px" x2="553px" y2="110px" marker-end="url(#arrowHead)"></line><rect x="0px" y="165px" width="17px" height="25px"></rect><text x="8px" y="165px"><tspan x="8" dy="18">2</tspan></text><line x1="31px" y1="135px" x2="8px" y2="165px" marker-end="url(#arrowHead)"></line><rect x="18px" y="165px" width="17px" height="25px"></rect><text x="27px" y="165px"><tspan x="27" dy="18">4</tspan></text><line x1="35px" y1="135px" x2="27px" y2="165px" marker-end="url(#arrowHead)"></line><rect x="37px" y="165px" width="17px" height="25px"></rect><text x="46px" y="165px"><tspan x="46" dy="18">5</tspan></text><line x1="38px" y1="135px" x2="46px" y2="165px" marker-end="url(#arrowHead)"></line><rect x="56px" y="165px" width="17px" height="25px"></rect><text x="65px" y="165px"><tspan x="65" dy="18">6</tspan></text><line x1="42px" y1="135px" x2="65px" y2="165px" marker-end="url(#arrowHead)"></line><rect x="82px" y="165px" width="17px" height="25px"></rect><text x="91px" y="165px"><tspan x="91" dy="18">2</tspan></text><line x1="123px" y1="135px" x2="91px" y2="165px" marker-end="url(#arrowHead)"></line><rect x="101px" y="165px" width="17px" height="25px"></rect><text x="109px" y="165px"><tspan x="109" dy="18">3</tspan></text><line x1="126px" y1="135px" x2="109px" y2="165px" marker-end="url(#arrowHead)"></line><rect x="120px" y="165px" width="17px" height="25px"></rect><text x="128px" y="165px"><tspan x="128" dy="18">5</tspan></text><line x1="128px" y1="135px" x2="128px" y2="165px" marker-end="url(#arrowHead)"></line><rect x="139px" y="165px" width="17px" height="25px"></rect><text x="147px" y="165px"><tspan x="147" dy="18">7</tspan></text><line x1="131px" y1="135px" x2="147px" y2="165px" marker-end="url(#arrowHead)"></line><rect x="158px" y="165px" width="17px" height="25px"></rect><text x="166px" y="165px"><tspan x="166" dy="18">9</tspan></text><line x1="134px" y1="135px" x2="166px" y2="165px" marker-end="url(#arrowHead)"></line><rect x="183px" y="165px" width="17px" height="25px"></rect><text x="192px" y="165px"><tspan x="192" dy="18">2</tspan></text><line x1="233px" y1="135px" x2="192px" y2="165px" marker-end="url(#arrowHead)"></line><rect x="202px" y="165px" width="17px" height="25px"></rect><text x="211px" y="165px"><tspan x="211" dy="18">3</tspan></text><line x1="236px" y1="135px" x2="211px" y2="165px" marker-end="url(#arrowHead)"></line><rect x="221px" y="165px" width="17px" height="25px"></rect><text x="230px" y="165px"><tspan x="230" dy="18">4</tspan></text><line x1="238px" y1="135px" x2="230px" y2="165px" marker-end="url(#arrowHead)"></line><rect x="240px" y="165px" width="17px" height="25px"></rect><text x="249px" y="165px"><tspan x="249" dy="18">6</tspan></text><line x1="241px" y1="135px" x2="249px" y2="165px" marker-end="url(#arrowHead)"></line><rect x="259px" y="165px" width="17px" height="25px"></rect><text x="268px" y="165px"><tspan x="268" dy="18">7</tspan></text><line x1="243px" y1="135px" x2="268px" y2="165px" marker-end="url(#arrowHead)"></line><rect x="278px" y="165px" width="17px" height="25px"></rect><text x="287px" y="165px"><tspan x="287" dy="18">9</tspan></text><line x1="245px" y1="135px" x2="287px" y2="165px" marker-end="url(#arrowHead)"></line><rect x="304px" y="165px" width="17px" height="25px"></rect><text x="312px" y="165px"><tspan x="312" dy="18">2</tspan></text><line x1="345px" y1="135px" x2="312px" y2="165px" marker-end="url(#arrowHead)"></line><rect x="323px" y="165px" width="17px" height="25px"></rect><text x="331px" y="165px"><tspan x="331" dy="18">3</tspan></text><line x1="347px" y1="135px" x2="331px" y2="165px" marker-end="url(#arrowHead)"></line><rect x="342px" y="165px" width="17px" height="25px"></rect><text x="350px" y="165px"><tspan x="350" dy="18">5</tspan></text><line x1="350px" y1="135px" x2="350px" y2="165px" marker-end="url(#arrowHead)"></line><rect x="361px" y="165px" width="17px" height="25px"></rect><text x="369px" y="165px"><tspan x="369" dy="18">7</tspan></text><line x1="353px" y1="135px" x2="369px" y2="165px" marker-end="url(#arrowHead)"></line><rect x="380px" y="165px" width="17px" height="25px"></rect><text x="388px" y="165px"><tspan x="388" dy="18">9</tspan></text><line x1="356px" y1="135px" x2="388px" y2="165px" marker-end="url(#arrowHead)"></line><rect x="405px" y="165px" width="17px" height="25px"></rect><text x="414px" y="165px"><tspan x="414" dy="18">2</tspan></text><line x1="446px" y1="135px" x2="414px" y2="165px" marker-end="url(#arrowHead)"></line><rect x="424px" y="165px" width="17px" height="25px"></rect><text x="433px" y="165px"><tspan x="433" dy="18">4</tspan></text><line x1="449px" y1="135px" x2="433px" y2="165px" marker-end="url(#arrowHead)"></line><rect x="443px" y="165px" width="17px" height="25px"></rect><text x="452px" y="165px"><tspan x="452" dy="18">5</tspan></text><line x1="452px" y1="135px" x2="452px" y2="165px" marker-end="url(#arrowHead)"></line><rect x="462px" y="165px" width="17px" height="25px"></rect><text x="471px" y="165px"><tspan x="471" dy="18">6</tspan></text><line x1="454px" y1="135px" x2="471px" y2="165px" marker-end="url(#arrowHead)"></line><rect x="481px" y="165px" width="17px" height="25px"></rect><text x="490px" y="165px"><tspan x="490" dy="18">9</tspan></text><line x1="457px" y1="135px" x2="490px" y2="165px" marker-end="url(#arrowHead)"></line><rect x="507px" y="165px" width="17px" height="25px"></rect><text x="515px" y="165px"><tspan x="515" dy="18">2</tspan></text><line x1="547px" y1="135px" x2="515px" y2="165px" marker-end="url(#arrowHead)"></line><rect x="526px" y="165px" width="17px" height="25px"></rect><text x="534px" y="165px"><tspan x="534" dy="18">4</tspan></text><line x1="550px" y1="135px" x2="534px" y2="165px" marker-end="url(#arrowHead)"></line><rect x="545px" y="165px" width="17px" height="25px"></rect><text x="553px" y="165px"><tspan x="553" dy="18">5</tspan></text><line x1="553px" y1="135px" x2="553px" y2="165px" marker-end="url(#arrowHead)"></line><rect x="563px" y="165px" width="17px" height="25px"></rect><text x="572px" y="165px"><tspan x="572" dy="18">6</tspan></text><line x1="556px" y1="135px" x2="572px" y2="165px" marker-end="url(#arrowHead)"></line><rect x="582px" y="165px" width="17px" height="25px"></rect><text x="591px" y="165px"><tspan x="591" dy="18">7</tspan></text><line x1="559px" y1="135px" x2="591px" y2="165px" marker-end="url(#arrowHead)"></line></g>
    </svg>
  