
    <svg id="diagramSvg" xmlns="http://www.w3.org/2000/svg" style="width: 600px; height: 300px;">
      <style id="stylesheet">text {
  text-anchor: middle;
  font-size: small;
  font-weight: bold;
}

rect {
  fill: lightblue;
  stroke: black;
  opacity: 0.5;
  stroke-width: 1;
}

line {
  stroke: black;
  opacity: 0.5;
  stroke-width: 1;
}</style>
      <defs>
        <marker id="arrowHead" viewBox="-10 -5 10 10" markerUnits="strokeWidth" markerWidth="6" markerHeight="5" orient="auto">
          <path d="M -10 -5 L 0 0 L -10 5 z"></path>
        </marker>
      </defs>
      <g id="diagramGroup"><rect x="288px" y="0px" width="23px" height="25px"></rect><text x="299px" y="0px"><tspan x="299" dy="18">4</tspan></text><rect x="288px" y="55px" width="23px" height="25px"></rect><text x="299px" y="55px"><tspan x="299" dy="18">3</tspan></text><line x1="299px" y1="25px" x2="299px" y2="55px" marker-end="url(#arrowHead)"></line><rect x="52px" y="110px" width="23px" height="25px"></rect><text x="64px" y="110px"><tspan x="64" dy="18">2</tspan></text><line x1="292px" y1="80px" x2="64px" y2="110px" marker-end="url(#arrowHead)"></line><rect x="205px" y="110px" width="23px" height="25px"></rect><text x="216px" y="110px"><tspan x="216" dy="18">5</tspan></text><line x1="297px" y1="80px" x2="216px" y2="110px" marker-end="url(#arrowHead)"></line><rect x="371px" y="110px" width="23px" height="25px"></rect><text x="383px" y="110px"><tspan x="383" dy="18">6</tspan></text><line x1="302px" y1="80px" x2="383px" y2="110px" marker-end="url(#arrowHead)"></line><rect x="524px" y="110px" width="23px" height="25px"></rect><text x="535px" y="110px"><tspan x="535" dy="18">8</tspan></text><line x1="307px" y1="80px" x2="535px" y2="110px" marker-end="url(#arrowHead)"></line><rect x="0px" y="165px" width="23px" height="25px"></rect><text x="11px" y="165px"><tspan x="11" dy="18">1</tspan></text><line x1="56px" y1="135px" x2="11px" y2="165px" marker-end="url(#arrowHead)"></line><rect x="26px" y="165px" width="23px" height="25px"></rect><text x="37px" y="165px"><tspan x="37" dy="18">5</tspan></text><line x1="60px" y1="135px" x2="37px" y2="165px" marker-end="url(#arrowHead)"></line><rect x="52px" y="165px" width="23px" height="25px"></rect><text x="64px" y="165px"><tspan x="64" dy="18">6</tspan></text><line x1="64px" y1="135px" x2="64px" y2="165px" marker-end="url(#arrowHead)"></line><rect x="78px" y="165px" width="23px" height="25px"></rect><text x="90px" y="165px"><tspan x="90" dy="18">7</tspan></text><line x1="67px" y1="135px" x2="90px" y2="165px" marker-end="url(#arrowHead)"></line><rect x="104px" y="165px" width="23px" height="25px"></rect><text x="116px" y="165px"><tspan x="116" dy="18">9</tspan></text><line x1="71px" y1="135px" x2="116px" y2="165px" marker-end="url(#arrowHead)"></line><rect x="139px" y="165px" width="23px" height="25px"></rect><text x="151px" y="165px"><tspan x="151" dy="18">1</tspan></text><line x1="208px" y1="135px" x2="151px" y2="165px" marker-end="url(#arrowHead)"></line><rect x="166px" y="165px" width="23px" height="25px"></rect><text x="177px" y="165px"><tspan x="177" dy="18">2</tspan></text><line x1="211px" y1="135px" x2="177px" y2="165px" marker-end="url(#arrowHead)"></line><rect x="192px" y="165px" width="23px" height="25px"></rect><text x="203px" y="165px"><tspan x="203" dy="18">6</tspan></text><line x1="215px" y1="135px" x2="203px" y2="165px" marker-end="url(#arrowHead)"></line><rect x="218px" y="165px" width="23px" height="25px"></rect><text x="230px" y="165px"><tspan x="230" dy="18">7</tspan></text><line x1="218px" y1="135px" x2="230px" y2="165px" marker-end="url(#arrowHead)"></line><rect x="244px" y="165px" width="23px" height="25px"></rect><text x="256px" y="165px"><tspan x="256" dy="18">8</tspan></text><line x1="222px" y1="135px" x2="256px" y2="165px" marker-end="url(#arrowHead)"></line><rect x="270px" y="165px" width="23px" height="25px"></rect><text x="282px" y="165px"><tspan x="282" dy="18">9</tspan></text><line x1="225px" y1="135px" x2="282px" y2="165px" marker-end="url(#arrowHead)"></line><rect x="305px" y="165px" width="23px" height="25px"></rect><text x="317px" y="165px"><tspan x="317" dy="18">1</tspan></text><line x1="374px" y1="135px" x2="317px" y2="165px" marker-end="url(#arrowHead)"></line><rect x="332px" y="165px" width="23px" height="25px"></rect><text x="343px" y="165px"><tspan x="343" dy="18">2</tspan></text><line x1="377px" y1="135px" x2="343px" y2="165px" marker-end="url(#arrowHead)"></line><rect x="358px" y="165px" width="23px" height="25px"></rect><text x="369px" y="165px"><tspan x="369" dy="18">5</tspan></text><line x1="381px" y1="135px" x2="369px" y2="165px" marker-end="url(#arrowHead)"></line><rect x="384px" y="165px" width="23px" height="25px"></rect><text x="396px" y="165px"><tspan x="396" dy="18">7</tspan></text><line x1="384px" y1="135px" x2="396px" y2="165px" marker-end="url(#arrowHead)"></line><rect x="410px" y="165px" width="23px" height="25px"></rect><text x="422px" y="165px"><tspan x="422" dy="18">8</tspan></text><line x1="388px" y1="135px" x2="422px" y2="165px" marker-end="url(#arrowHead)"></line><rect x="436px" y="165px" width="23px" height="25px"></rect><text x="448px" y="165px"><tspan x="448" dy="18">9</tspan></text><line x1="391px" y1="135px" x2="448px" y2="165px" marker-end="url(#arrowHead)"></line><rect x="471px" y="165px" width="23px" height="25px"></rect><text x="483px" y="165px"><tspan x="483" dy="18">1</tspan></text><line x1="528px" y1="135px" x2="483px" y2="165px" marker-end="url(#arrowHead)"></line><rect x="498px" y="165px" width="23px" height="25px"></rect><text x="509px" y="165px"><tspan x="509" dy="18">5</tspan></text><line x1="532px" y1="135px" x2="509px" y2="165px" marker-end="url(#arrowHead)"></line><rect x="524px" y="165px" width="23px" height="25px"></rect><text x="535px" y="165px"><tspan x="535" dy="18">6</tspan></text><line x1="535px" y1="135px" x2="535px" y2="165px" marker-end="url(#arrowHead)"></line><rect x="550px" y="165px" width="23px" height="25px"></rect><text x="562px" y="165px"><tspan x="562" dy="18">7</tspan></text><line x1="539px" y1="135px" x2="562px" y2="165px" marker-end="url(#arrowHead)"></line><rect x="576px" y="165px" width="23px" height="25px"></rect><text x="588px" y="165px"><tspan x="588" dy="18">9</tspan></text><line x1="543px" y1="135px" x2="588px" y2="165px" marker-end="url(#arrowHead)"></line></g>
    </svg>
  