
    <svg id="diagramSvg" xmlns="http://www.w3.org/2000/svg" style="width: 600px; height: 300px;">
      <style id="stylesheet">text {
  text-anchor: middle;
  font-size: small;
  font-weight: bold;
}

rect {
  fill: lightblue;
  stroke: black;
  opacity: 0.5;
  stroke-width: 1;
}

line {
  stroke: black;
  opacity: 0.5;
  stroke-width: 1;
}</style>
      <defs>
        <marker id="arrowHead" viewBox="-10 -5 10 10" markerUnits="strokeWidth" markerWidth="6" markerHeight="5" orient="auto">
          <path d="M -10 -5 L 0 0 L -10 5 z"></path>
        </marker>
      </defs>
      <g id="diagramGroup"><rect x="303px" y="0px" width="13px" height="25px"></rect><text x="310px" y="0px"><tspan x="310" dy="18">1</tspan></text><rect x="303px" y="55px" width="13px" height="25px"></rect><text x="310px" y="55px"><tspan x="310" dy="18">5</tspan></text><line x1="310px" y1="25px" x2="310px" y2="55px" marker-end="url(#arrowHead)"></line><rect x="37px" y="110px" width="13px" height="25px"></rect><text x="44px" y="110px"><tspan x="44" dy="18">2</tspan></text><line x1="305px" y1="80px" x2="44px" y2="110px" marker-end="url(#arrowHead)"></line><rect x="125px" y="110px" width="13px" height="25px"></rect><text x="131px" y="110px"><tspan x="131" dy="18">3</tspan></text><line x1="307px" y1="80px" x2="131px" y2="110px" marker-end="url(#arrowHead)"></line><rect x="212px" y="110px" width="13px" height="25px"></rect><text x="219px" y="110px"><tspan x="219" dy="18">4</tspan></text><line x1="309px" y1="80px" x2="219px" y2="110px" marker-end="url(#arrowHead)"></line><rect x="308px" y="110px" width="13px" height="25px"></rect><text x="314px" y="110px"><tspan x="314" dy="18">6</tspan></text><line x1="310px" y1="80px" x2="314px" y2="110px" marker-end="url(#arrowHead)"></line><rect x="395px" y="110px" width="13px" height="25px"></rect><text x="402px" y="110px"><tspan x="402" dy="18">7</tspan></text><line x1="312px" y1="80px" x2="402px" y2="110px" marker-end="url(#arrowHead)"></line><rect x="483px" y="110px" width="13px" height="25px"></rect><text x="490px" y="110px"><tspan x="490" dy="18">8</tspan></text><line x1="314px" y1="80px" x2="490px" y2="110px" marker-end="url(#arrowHead)"></line><rect x="563px" y="110px" width="13px" height="25px"></rect><text x="570px" y="110px"><tspan x="570" dy="18">9</tspan></text><line x1="315px" y1="80px" x2="570px" y2="110px" marker-end="url(#arrowHead)"></line><rect x="0px" y="165px" width="13px" height="25px"></rect><text x="6px" y="165px"><tspan x="6" dy="18">3</tspan></text><line x1="39px" y1="135px" x2="6px" y2="165px" marker-end="url(#arrowHead)"></line><rect x="14px" y="165px" width="13px" height="25px"></rect><text x="21px" y="165px"><tspan x="21" dy="18">4</tspan></text><line x1="41px" y1="135px" x2="21px" y2="165px" marker-end="url(#arrowHead)"></line><rect x="29px" y="165px" width="13px" height="25px"></rect><text x="36px" y="165px"><tspan x="36" dy="18">6</tspan></text><line x1="43px" y1="135px" x2="36px" y2="165px" marker-end="url(#arrowHead)"></line><rect x="44px" y="165px" width="13px" height="25px"></rect><text x="51px" y="165px"><tspan x="51" dy="18">7</tspan></text><line x1="45px" y1="135px" x2="51px" y2="165px" marker-end="url(#arrowHead)"></line><rect x="59px" y="165px" width="13px" height="25px"></rect><text x="66px" y="165px"><tspan x="66" dy="18">8</tspan></text><line x1="47px" y1="135px" x2="66px" y2="165px" marker-end="url(#arrowHead)"></line><rect x="74px" y="165px" width="13px" height="25px"></rect><text x="81px" y="165px"><tspan x="81" dy="18">9</tspan></text><line x1="49px" y1="135px" x2="81px" y2="165px" marker-end="url(#arrowHead)"></line><rect x="95px" y="165px" width="13px" height="25px"></rect><text x="102px" y="165px"><tspan x="102" dy="18">2</tspan></text><line x1="127px" y1="135px" x2="102px" y2="165px" marker-end="url(#arrowHead)"></line><rect x="110px" y="165px" width="13px" height="25px"></rect><text x="117px" y="165px"><tspan x="117" dy="18">4</tspan></text><line x1="129px" y1="135px" x2="117px" y2="165px" marker-end="url(#arrowHead)"></line><rect x="125px" y="165px" width="13px" height="25px"></rect><text x="131px" y="165px"><tspan x="131" dy="18">6</tspan></text><line x1="131px" y1="135px" x2="131px" y2="165px" marker-end="url(#arrowHead)"></line><rect x="140px" y="165px" width="13px" height="25px"></rect><text x="146px" y="165px"><tspan x="146" dy="18">7</tspan></text><line x1="134px" y1="135px" x2="146px" y2="165px" marker-end="url(#arrowHead)"></line><rect x="155px" y="165px" width="13px" height="25px"></rect><text x="161px" y="165px"><tspan x="161" dy="18">8</tspan></text><line x1="136px" y1="135px" x2="161px" y2="165px" marker-end="url(#arrowHead)"></line><rect x="175px" y="165px" width="13px" height="25px"></rect><text x="182px" y="165px"><tspan x="182" dy="18">2</tspan></text><line x1="214px" y1="135px" x2="182px" y2="165px" marker-end="url(#arrowHead)"></line><rect x="190px" y="165px" width="13px" height="25px"></rect><text x="197px" y="165px"><tspan x="197" dy="18">3</tspan></text><line x1="216px" y1="135px" x2="197px" y2="165px" marker-end="url(#arrowHead)"></line><rect x="205px" y="165px" width="13px" height="25px"></rect><text x="212px" y="165px"><tspan x="212" dy="18">6</tspan></text><line x1="218px" y1="135px" x2="212px" y2="165px" marker-end="url(#arrowHead)"></line><rect x="220px" y="165px" width="13px" height="25px"></rect><text x="227px" y="165px"><tspan x="227" dy="18">7</tspan></text><line x1="220px" y1="135px" x2="227px" y2="165px" marker-end="url(#arrowHead)"></line><rect x="235px" y="165px" width="13px" height="25px"></rect><text x="242px" y="165px"><tspan x="242" dy="18">8</tspan></text><line x1="222px" y1="135px" x2="242px" y2="165px" marker-end="url(#arrowHead)"></line><rect x="250px" y="165px" width="13px" height="25px"></rect><text x="257px" y="165px"><tspan x="257" dy="18">9</tspan></text><line x1="224px" y1="135px" x2="257px" y2="165px" marker-end="url(#arrowHead)"></line><rect x="270px" y="165px" width="13px" height="25px"></rect><text x="277px" y="165px"><tspan x="277" dy="18">2</tspan></text><line x1="310px" y1="135px" x2="277px" y2="165px" marker-end="url(#arrowHead)"></line><rect x="285px" y="165px" width="13px" height="25px"></rect><text x="292px" y="165px"><tspan x="292" dy="18">3</tspan></text><line x1="312px" y1="135px" x2="292px" y2="165px" marker-end="url(#arrowHead)"></line><rect x="300px" y="165px" width="13px" height="25px"></rect><text x="307px" y="165px"><tspan x="307" dy="18">4</tspan></text><line x1="314px" y1="135px" x2="307px" y2="165px" marker-end="url(#arrowHead)"></line><rect x="315px" y="165px" width="13px" height="25px"></rect><text x="322px" y="165px"><tspan x="322" dy="18">7</tspan></text><line x1="315px" y1="135px" x2="322px" y2="165px" marker-end="url(#arrowHead)"></line><rect x="330px" y="165px" width="13px" height="25px"></rect><text x="337px" y="165px"><tspan x="337" dy="18">8</tspan></text><line x1="317px" y1="135px" x2="337px" y2="165px" marker-end="url(#arrowHead)"></line><rect x="345px" y="165px" width="13px" height="25px"></rect><text x="352px" y="165px"><tspan x="352" dy="18">9</tspan></text><line x1="319px" y1="135px" x2="352px" y2="165px" marker-end="url(#arrowHead)"></line><rect x="365px" y="165px" width="13px" height="25px"></rect><text x="372px" y="165px"><tspan x="372" dy="18">2</tspan></text><line x1="398px" y1="135px" x2="372px" y2="165px" marker-end="url(#arrowHead)"></line><rect x="380px" y="165px" width="13px" height="25px"></rect><text x="387px" y="165px"><tspan x="387" dy="18">3</tspan></text><line x1="400px" y1="135px" x2="387px" y2="165px" marker-end="url(#arrowHead)"></line><rect x="395px" y="165px" width="13px" height="25px"></rect><text x="402px" y="165px"><tspan x="402" dy="18">4</tspan></text><line x1="402px" y1="135px" x2="402px" y2="165px" marker-end="url(#arrowHead)"></line><rect x="410px" y="165px" width="13px" height="25px"></rect><text x="417px" y="165px"><tspan x="417" dy="18">6</tspan></text><line x1="404px" y1="135px" x2="417px" y2="165px" marker-end="url(#arrowHead)"></line><rect x="425px" y="165px" width="13px" height="25px"></rect><text x="432px" y="165px"><tspan x="432" dy="18">8</tspan></text><line x1="407px" y1="135px" x2="432px" y2="165px" marker-end="url(#arrowHead)"></line><rect x="446px" y="165px" width="13px" height="25px"></rect><text x="453px" y="165px"><tspan x="453" dy="18">2</tspan></text><line x1="485px" y1="135px" x2="453px" y2="165px" marker-end="url(#arrowHead)"></line><rect x="461px" y="165px" width="13px" height="25px"></rect><text x="468px" y="165px"><tspan x="468" dy="18">3</tspan></text><line x1="487px" y1="135px" x2="468px" y2="165px" marker-end="url(#arrowHead)"></line><rect x="476px" y="165px" width="13px" height="25px"></rect><text x="482px" y="165px"><tspan x="482" dy="18">4</tspan></text><line x1="489px" y1="135px" x2="482px" y2="165px" marker-end="url(#arrowHead)"></line><rect x="491px" y="165px" width="13px" height="25px"></rect><text x="497px" y="165px"><tspan x="497" dy="18">6</tspan></text><line x1="491px" y1="135px" x2="497px" y2="165px" marker-end="url(#arrowHead)"></line><rect x="506px" y="165px" width="13px" height="25px"></rect><text x="512px" y="165px"><tspan x="512" dy="18">7</tspan></text><line x1="493px" y1="135px" x2="512px" y2="165px" marker-end="url(#arrowHead)"></line><rect x="521px" y="165px" width="13px" height="25px"></rect><text x="527px" y="165px"><tspan x="527" dy="18">9</tspan></text><line x1="495px" y1="135px" x2="527px" y2="165px" marker-end="url(#arrowHead)"></line><rect x="541px" y="165px" width="13px" height="25px"></rect><text x="548px" y="165px"><tspan x="548" dy="18">2</tspan></text><line x1="566px" y1="135px" x2="548px" y2="165px" marker-end="url(#arrowHead)"></line><rect x="556px" y="165px" width="13px" height="25px"></rect><text x="563px" y="165px"><tspan x="563" dy="18">4</tspan></text><line x1="569px" y1="135px" x2="563px" y2="165px" marker-end="url(#arrowHead)"></line><rect x="571px" y="165px" width="13px" height="25px"></rect><text x="578px" y="165px"><tspan x="578" dy="18">6</tspan></text><line x1="572px" y1="135px" x2="578px" y2="165px" marker-end="url(#arrowHead)"></line><rect x="586px" y="165px" width="13px" height="25px"></rect><text x="593px" y="165px"><tspan x="593" dy="18">8</tspan></text><line x1="574px" y1="135px" x2="593px" y2="165px" marker-end="url(#arrowHead)"></line></g>
    </svg>
  