
    <svg id="diagramSvg" xmlns="http://www.w3.org/2000/svg" style="width: 600px; height: 300px;">
      <style id="stylesheet">text {
  text-anchor: middle;
  font-size: small;
  font-weight: bold;
}

rect {
  fill: lightblue;
  stroke: black;
  opacity: 0.5;
  stroke-width: 1;
}

line {
  stroke: black;
  opacity: 0.5;
  stroke-width: 1;
}</style>
      <defs>
        <marker id="arrowHead" viewBox="-10 -5 10 10" markerUnits="strokeWidth" markerWidth="6" markerHeight="5" orient="auto">
          <path d="M -10 -5 L 0 0 L -10 5 z"></path>
        </marker>
      </defs>
      <g id="diagramGroup"><rect x="307px" y="0px" width="18px" height="25px"></rect><text x="316px" y="0px"><tspan x="316" dy="18">5</tspan></text><rect x="307px" y="55px" width="18px" height="25px"></rect><text x="316px" y="55px"><tspan x="316" dy="18">1</tspan></text><line x1="316px" y1="25px" x2="316px" y2="55px" marker-end="url(#arrowHead)"></line><rect x="51px" y="110px" width="18px" height="25px"></rect><text x="60px" y="110px"><tspan x="60" dy="18">2</tspan></text><line x1="310px" y1="80px" x2="60px" y2="110px" marker-end="url(#arrowHead)"></line><rect x="181px" y="110px" width="18px" height="25px"></rect><text x="190px" y="110px"><tspan x="190" dy="18">4</tspan></text><line x1="313px" y1="80px" x2="190px" y2="110px" marker-end="url(#arrowHead)"></line><rect x="311px" y="110px" width="18px" height="25px"></rect><text x="320px" y="110px"><tspan x="320" dy="18">6</tspan></text><line x1="316px" y1="80px" x2="320px" y2="110px" marker-end="url(#arrowHead)"></line><rect x="441px" y="110px" width="18px" height="25px"></rect><text x="450px" y="110px"><tspan x="450" dy="18">8</tspan></text><line x1="319px" y1="80px" x2="450px" y2="110px" marker-end="url(#arrowHead)"></line><rect x="550px" y="110px" width="18px" height="25px"></rect><text x="560px" y="110px"><tspan x="560" dy="18">9</tspan></text><line x1="322px" y1="80px" x2="560px" y2="110px" marker-end="url(#arrowHead)"></line><rect x="0px" y="165px" width="18px" height="25px"></rect><text x="9px" y="165px"><tspan x="9" dy="18">3</tspan></text><line x1="53px" y1="135px" x2="9px" y2="165px" marker-end="url(#arrowHead)"></line><rect x="20px" y="165px" width="18px" height="25px"></rect><text x="29px" y="165px"><tspan x="29" dy="18">4</tspan></text><line x1="56px" y1="135px" x2="29px" y2="165px" marker-end="url(#arrowHead)"></line><rect x="40px" y="165px" width="18px" height="25px"></rect><text x="50px" y="165px"><tspan x="50" dy="18">6</tspan></text><line x1="59px" y1="135px" x2="50px" y2="165px" marker-end="url(#arrowHead)"></line><rect x="61px" y="165px" width="18px" height="25px"></rect><text x="70px" y="165px"><tspan x="70" dy="18">7</tspan></text><line x1="61px" y1="135px" x2="70px" y2="165px" marker-end="url(#arrowHead)"></line><rect x="81px" y="165px" width="18px" height="25px"></rect><text x="91px" y="165px"><tspan x="91" dy="18">8</tspan></text><line x1="64px" y1="135px" x2="91px" y2="165px" marker-end="url(#arrowHead)"></line><rect x="102px" y="165px" width="18px" height="25px"></rect><text x="111px" y="165px"><tspan x="111" dy="18">9</tspan></text><line x1="66px" y1="135px" x2="111px" y2="165px" marker-end="url(#arrowHead)"></line><rect x="130px" y="165px" width="18px" height="25px"></rect><text x="139px" y="165px"><tspan x="139" dy="18">2</tspan></text><line x1="183px" y1="135px" x2="139px" y2="165px" marker-end="url(#arrowHead)"></line><rect x="150px" y="165px" width="18px" height="25px"></rect><text x="159px" y="165px"><tspan x="159" dy="18">3</tspan></text><line x1="186px" y1="135px" x2="159px" y2="165px" marker-end="url(#arrowHead)"></line><rect x="170px" y="165px" width="18px" height="25px"></rect><text x="180px" y="165px"><tspan x="180" dy="18">6</tspan></text><line x1="189px" y1="135px" x2="180px" y2="165px" marker-end="url(#arrowHead)"></line><rect x="191px" y="165px" width="18px" height="25px"></rect><text x="200px" y="165px"><tspan x="200" dy="18">7</tspan></text><line x1="191px" y1="135px" x2="200px" y2="165px" marker-end="url(#arrowHead)"></line><rect x="211px" y="165px" width="18px" height="25px"></rect><text x="221px" y="165px"><tspan x="221" dy="18">8</tspan></text><line x1="194px" y1="135px" x2="221px" y2="165px" marker-end="url(#arrowHead)"></line><rect x="232px" y="165px" width="18px" height="25px"></rect><text x="241px" y="165px"><tspan x="241" dy="18">9</tspan></text><line x1="197px" y1="135px" x2="241px" y2="165px" marker-end="url(#arrowHead)"></line><rect x="260px" y="165px" width="18px" height="25px"></rect><text x="269px" y="165px"><tspan x="269" dy="18">2</tspan></text><line x1="313px" y1="135px" x2="269px" y2="165px" marker-end="url(#arrowHead)"></line><rect x="280px" y="165px" width="18px" height="25px"></rect><text x="289px" y="165px"><tspan x="289" dy="18">3</tspan></text><line x1="316px" y1="135px" x2="289px" y2="165px" marker-end="url(#arrowHead)"></line><rect x="301px" y="165px" width="18px" height="25px"></rect><text x="310px" y="165px"><tspan x="310" dy="18">4</tspan></text><line x1="319px" y1="135px" x2="310px" y2="165px" marker-end="url(#arrowHead)"></line><rect x="321px" y="165px" width="18px" height="25px"></rect><text x="330px" y="165px"><tspan x="330" dy="18">7</tspan></text><line x1="321px" y1="135px" x2="330px" y2="165px" marker-end="url(#arrowHead)"></line><rect x="341px" y="165px" width="18px" height="25px"></rect><text x="351px" y="165px"><tspan x="351" dy="18">8</tspan></text><line x1="324px" y1="135px" x2="351px" y2="165px" marker-end="url(#arrowHead)"></line><rect x="362px" y="165px" width="18px" height="25px"></rect><text x="371px" y="165px"><tspan x="371" dy="18">9</tspan></text><line x1="327px" y1="135px" x2="371px" y2="165px" marker-end="url(#arrowHead)"></line><rect x="390px" y="165px" width="18px" height="25px"></rect><text x="399px" y="165px"><tspan x="399" dy="18">2</tspan></text><line x1="443px" y1="135px" x2="399px" y2="165px" marker-end="url(#arrowHead)"></line><rect x="410px" y="165px" width="18px" height="25px"></rect><text x="419px" y="165px"><tspan x="419" dy="18">3</tspan></text><line x1="446px" y1="135px" x2="419px" y2="165px" marker-end="url(#arrowHead)"></line><rect x="431px" y="165px" width="18px" height="25px"></rect><text x="440px" y="165px"><tspan x="440" dy="18">4</tspan></text><line x1="449px" y1="135px" x2="440px" y2="165px" marker-end="url(#arrowHead)"></line><rect x="451px" y="165px" width="18px" height="25px"></rect><text x="460px" y="165px"><tspan x="460" dy="18">6</tspan></text><line x1="451px" y1="135px" x2="460px" y2="165px" marker-end="url(#arrowHead)"></line><rect x="471px" y="165px" width="18px" height="25px"></rect><text x="481px" y="165px"><tspan x="481" dy="18">7</tspan></text><line x1="454px" y1="135px" x2="481px" y2="165px" marker-end="url(#arrowHead)"></line><rect x="492px" y="165px" width="18px" height="25px"></rect><text x="501px" y="165px"><tspan x="501" dy="18">9</tspan></text><line x1="457px" y1="135px" x2="501px" y2="165px" marker-end="url(#arrowHead)"></line><rect x="520px" y="165px" width="18px" height="25px"></rect><text x="529px" y="165px"><tspan x="529" dy="18">2</tspan></text><line x1="554px" y1="135px" x2="529px" y2="165px" marker-end="url(#arrowHead)"></line><rect x="540px" y="165px" width="18px" height="25px"></rect><text x="549px" y="165px"><tspan x="549" dy="18">4</tspan></text><line x1="558px" y1="135px" x2="549px" y2="165px" marker-end="url(#arrowHead)"></line><rect x="561px" y="165px" width="18px" height="25px"></rect><text x="570px" y="165px"><tspan x="570" dy="18">6</tspan></text><line x1="561px" y1="135px" x2="570px" y2="165px" marker-end="url(#arrowHead)"></line><rect x="581px" y="165px" width="18px" height="25px"></rect><text x="590px" y="165px"><tspan x="590" dy="18">8</tspan></text><line x1="565px" y1="135px" x2="590px" y2="165px" marker-end="url(#arrowHead)"></line></g>
    </svg>
  