
    <svg id="diagramSvg" xmlns="http://www.w3.org/2000/svg" style="width: 600px; height: 400px;">
      <style id="stylesheet">text {
  text-anchor: middle;
  font-size: small;
  font-weight: bold;
}

rect {
  fill: lightblue;
  stroke: black;
  opacity: 0.5;
  stroke-width: 1;
}

line {
  stroke: black;
  opacity: 0.5;
  stroke-width: 1;
}
  </style>
      <defs>
        <marker id="arrowHead" viewBox="-10 -5 10 10" markerUnits="strokeWidth" markerWidth="6" markerHeight="5" orient="auto">
          <path d="M -10 -5 L 0 0 L -10 5 z"></path>
        </marker>
      </defs>
      <g id="diagramGroup"><rect x="297px" y="0px" width="18px" height="33px"></rect><text x="306px" y="0px"><tspan x="306" dy="22.166666666666668">1</tspan></text><rect x="297px" y="73px" width="18px" height="33px"></rect><text x="306px" y="73px"><tspan x="306" dy="22.166666666666668">2</tspan></text><line x1="306px" y1="33px" x2="306px" y2="73px" marker-end="url(#arrowHead)"></line><rect x="30px" y="146px" width="18px" height="33px"></rect><text x="39px" y="146px"><tspan x="39" dy="22.166666666666668">3</tspan></text><line x1="300px" y1="106px" x2="39px" y2="146px" marker-end="url(#arrowHead)"></line><rect x="128px" y="146px" width="18px" height="33px"></rect><text x="137px" y="146px"><tspan x="137" dy="22.166666666666668">4</tspan></text><line x1="302px" y1="106px" x2="137px" y2="146px" marker-end="url(#arrowHead)"></line><rect x="246px" y="146px" width="18px" height="33px"></rect><text x="255px" y="146px"><tspan x="255" dy="22.166666666666668">5</tspan></text><line x1="305px" y1="106px" x2="255px" y2="146px" marker-end="url(#arrowHead)"></line><rect x="365px" y="146px" width="18px" height="33px"></rect><text x="374px" y="146px"><tspan x="374" dy="22.166666666666668">6</tspan></text><line x1="308px" y1="106px" x2="374px" y2="146px" marker-end="url(#arrowHead)"></line><rect x="463px" y="146px" width="18px" height="33px"></rect><text x="472px" y="146px"><tspan x="472" dy="22.166666666666668">7</tspan></text><line x1="310px" y1="106px" x2="472px" y2="146px" marker-end="url(#arrowHead)"></line><rect x="551px" y="146px" width="18px" height="33px"></rect><text x="560px" y="146px"><tspan x="560" dy="22.166666666666668">9</tspan></text><line x1="313px" y1="106px" x2="560px" y2="146px" marker-end="url(#arrowHead)"></line><rect x="0px" y="220px" width="18px" height="33px"></rect><text x="9px" y="220px"><tspan x="9" dy="22.166666666666668">4</tspan></text><line x1="33px" y1="180px" x2="9px" y2="220px" marker-end="url(#arrowHead)"></line><rect x="20px" y="220px" width="18px" height="33px"></rect><text x="29px" y="220px"><tspan x="29" dy="22.166666666666668">5</tspan></text><line x1="37px" y1="180px" x2="29px" y2="220px" marker-end="url(#arrowHead)"></line><rect x="40px" y="220px" width="18px" height="33px"></rect><text x="49px" y="220px"><tspan x="49" dy="22.166666666666668">6</tspan></text><line x1="41px" y1="180px" x2="49px" y2="220px" marker-end="url(#arrowHead)"></line><rect x="60px" y="220px" width="18px" height="33px"></rect><text x="69px" y="220px"><tspan x="69" dy="22.166666666666668">8</tspan></text><line x1="44px" y1="180px" x2="69px" y2="220px" marker-end="url(#arrowHead)"></line><rect x="88px" y="220px" width="18px" height="33px"></rect><text x="97px" y="220px"><tspan x="97" dy="22.166666666666668">3</tspan></text><line x1="131px" y1="180px" x2="97px" y2="220px" marker-end="url(#arrowHead)"></line><rect x="108px" y="220px" width="18px" height="33px"></rect><text x="117px" y="220px"><tspan x="117" dy="22.166666666666668">5</tspan></text><line x1="134px" y1="180px" x2="117px" y2="220px" marker-end="url(#arrowHead)"></line><rect x="128px" y="220px" width="18px" height="33px"></rect><text x="137px" y="220px"><tspan x="137" dy="22.166666666666668">7</tspan></text><line x1="137px" y1="180px" x2="137px" y2="220px" marker-end="url(#arrowHead)"></line><rect x="148px" y="220px" width="18px" height="33px"></rect><text x="157px" y="220px"><tspan x="157" dy="22.166666666666668">8</tspan></text><line x1="140px" y1="180px" x2="157px" y2="220px" marker-end="url(#arrowHead)"></line><rect x="168px" y="220px" width="18px" height="33px"></rect><text x="178px" y="220px"><tspan x="178" dy="22.166666666666668">9</tspan></text><line x1="143px" y1="180px" x2="178px" y2="220px" marker-end="url(#arrowHead)"></line><rect x="196px" y="220px" width="18px" height="33px"></rect><text x="205px" y="220px"><tspan x="205" dy="22.166666666666668">3</tspan></text><line x1="249px" y1="180px" x2="205px" y2="220px" marker-end="url(#arrowHead)"></line><rect x="216px" y="220px" width="18px" height="33px"></rect><text x="225px" y="220px"><tspan x="225" dy="22.166666666666668">4</tspan></text><line x1="252px" y1="180px" x2="225px" y2="220px" marker-end="url(#arrowHead)"></line><rect x="236px" y="220px" width="18px" height="33px"></rect><text x="245px" y="220px"><tspan x="245" dy="22.166666666666668">6</tspan></text><line x1="254px" y1="180px" x2="245px" y2="220px" marker-end="url(#arrowHead)"></line><rect x="256px" y="220px" width="18px" height="33px"></rect><text x="266px" y="220px"><tspan x="266" dy="22.166666666666668">7</tspan></text><line x1="257px" y1="180px" x2="266px" y2="220px" marker-end="url(#arrowHead)"></line><rect x="277px" y="220px" width="18px" height="33px"></rect><text x="286px" y="220px"><tspan x="286" dy="22.166666666666668">8</tspan></text><line x1="259px" y1="180px" x2="286px" y2="220px" marker-end="url(#arrowHead)"></line><rect x="297px" y="220px" width="18px" height="33px"></rect><text x="306px" y="220px"><tspan x="306" dy="22.166666666666668">9</tspan></text><line x1="262px" y1="180px" x2="306px" y2="220px" marker-end="url(#arrowHead)"></line><rect x="324px" y="220px" width="18px" height="33px"></rect><text x="333px" y="220px"><tspan x="333" dy="22.166666666666668">3</tspan></text><line x1="368px" y1="180px" x2="333px" y2="220px" marker-end="url(#arrowHead)"></line><rect x="345px" y="220px" width="18px" height="33px"></rect><text x="354px" y="220px"><tspan x="354" dy="22.166666666666668">5</tspan></text><line x1="371px" y1="180px" x2="354px" y2="220px" marker-end="url(#arrowHead)"></line><rect x="365px" y="220px" width="18px" height="33px"></rect><text x="374px" y="220px"><tspan x="374" dy="22.166666666666668">7</tspan></text><line x1="374px" y1="180px" x2="374px" y2="220px" marker-end="url(#arrowHead)"></line><rect x="385px" y="220px" width="18px" height="33px"></rect><text x="394px" y="220px"><tspan x="394" dy="22.166666666666668">8</tspan></text><line x1="377px" y1="180px" x2="394px" y2="220px" marker-end="url(#arrowHead)"></line><rect x="405px" y="220px" width="18px" height="33px"></rect><text x="414px" y="220px"><tspan x="414" dy="22.166666666666668">9</tspan></text><line x1="380px" y1="180px" x2="414px" y2="220px" marker-end="url(#arrowHead)"></line><rect x="433px" y="220px" width="18px" height="33px"></rect><text x="442px" y="220px"><tspan x="442" dy="22.166666666666668">4</tspan></text><line x1="467px" y1="180px" x2="442px" y2="220px" marker-end="url(#arrowHead)"></line><rect x="453px" y="220px" width="18px" height="33px"></rect><text x="462px" y="220px"><tspan x="462" dy="22.166666666666668">5</tspan></text><line x1="470px" y1="180px" x2="462px" y2="220px" marker-end="url(#arrowHead)"></line><rect x="473px" y="220px" width="18px" height="33px"></rect><text x="482px" y="220px"><tspan x="482" dy="22.166666666666668">6</tspan></text><line x1="474px" y1="180px" x2="482px" y2="220px" marker-end="url(#arrowHead)"></line><rect x="493px" y="220px" width="18px" height="33px"></rect><text x="502px" y="220px"><tspan x="502" dy="22.166666666666668">8</tspan></text><line x1="477px" y1="180px" x2="502px" y2="220px" marker-end="url(#arrowHead)"></line><rect x="521px" y="220px" width="18px" height="33px"></rect><text x="530px" y="220px"><tspan x="530" dy="22.166666666666668">4</tspan></text><line x1="555px" y1="180px" x2="530px" y2="220px" marker-end="url(#arrowHead)"></line><rect x="541px" y="220px" width="18px" height="33px"></rect><text x="550px" y="220px"><tspan x="550" dy="22.166666666666668">5</tspan></text><line x1="558px" y1="180px" x2="550px" y2="220px" marker-end="url(#arrowHead)"></line><rect x="561px" y="220px" width="18px" height="33px"></rect><text x="570px" y="220px"><tspan x="570" dy="22.166666666666668">6</tspan></text><line x1="562px" y1="180px" x2="570px" y2="220px" marker-end="url(#arrowHead)"></line><rect x="581px" y="220px" width="18px" height="33px"></rect><text x="590px" y="220px"><tspan x="590" dy="22.166666666666668">8</tspan></text><line x1="566px" y1="180px" x2="590px" y2="220px" marker-end="url(#arrowHead)"></line></g>
    </svg>
  